<svg width="96" height="96" viewBox="0 0 96 96" fill="none" xmlns="http://www.w3.org/2000/svg">
<rect width="96" height="96" fill="white"/>
<path fill-rule="evenodd" clip-rule="evenodd" d="M31.2 48.8H64.8V88.0001H63.0312C63.1417 85.9391 63.1999 83.7975 63.1999 81.6001C63.1999 65.2524 59.9764 52.0001 55.9999 52.0001C52.0235 52.0001 48.7999 65.2524 48.7999 81.6001C48.7999 83.7975 48.8582 85.9391 48.9687 88.0001H47.0312C47.1417 85.9391 47.2 83.7975 47.2 81.6001C47.2 65.2524 43.9764 52.0001 40 52.0001C36.0235 52.0001 32.8 65.2524 32.8 81.6001C32.8 83.7975 32.8582 85.9391 32.9687 88.0001H31.2V48.8Z" fill="#F27D00"/>
<path fill-rule="evenodd" clip-rule="evenodd" d="M44.4159 45.6C48.6133 45.6 52.0159 31.8104 52.0159 14.8C52.0159 12.4634 51.9517 10.1876 51.8301 8H53.6161V47.2H35.216V8H37.0018C36.8801 10.1876 36.8159 12.4634 36.8159 14.8C36.8159 31.8104 40.2186 45.6 44.4159 45.6Z" fill="#F27D00"/>
</svg>
