<svg width="120" height="120" viewBox="0 0 120 120" fill="none" xmlns="http://www.w3.org/2000/svg">
<rect width="120" height="120" rx="8" fill="#F27D00"/>
<path d="M27.2 69.24C26.08 69.24 25.072 69.104 24.176 68.832C23.28 68.544 22.424 68.048 21.608 67.344C21.4 67.168 21.24 66.968 21.128 66.744C21.016 66.52 20.96 66.296 20.96 66.072C20.96 65.704 21.088 65.384 21.344 65.112C21.616 64.824 21.952 64.68 22.352 64.68C22.656 64.68 22.928 64.776 23.168 64.968C23.776 65.464 24.376 65.84 24.968 66.096C25.576 66.352 26.32 66.48 27.2 66.48C27.792 66.48 28.336 66.392 28.832 66.216C29.328 66.024 29.728 65.776 30.032 65.472C30.336 65.152 30.488 64.792 30.488 64.392C30.488 63.912 30.344 63.504 30.056 63.168C29.768 62.832 29.328 62.552 28.736 62.328C28.144 62.088 27.392 61.904 26.48 61.776C25.616 61.648 24.856 61.456 24.2 61.2C23.544 60.928 22.992 60.592 22.544 60.192C22.112 59.776 21.784 59.296 21.56 58.752C21.336 58.192 21.224 57.568 21.224 56.88C21.224 55.84 21.488 54.952 22.016 54.216C22.56 53.48 23.288 52.92 24.2 52.536C25.112 52.152 26.12 51.96 27.224 51.96C28.264 51.96 29.224 52.12 30.104 52.44C31 52.744 31.728 53.136 32.288 53.616C32.752 53.984 32.984 54.408 32.984 54.888C32.984 55.24 32.848 55.56 32.576 55.848C32.304 56.136 31.984 56.28 31.616 56.28C31.376 56.28 31.16 56.208 30.968 56.064C30.712 55.84 30.368 55.632 29.936 55.44C29.504 55.232 29.048 55.064 28.568 54.936C28.088 54.792 27.64 54.72 27.224 54.72C26.536 54.72 25.952 54.808 25.472 54.984C25.008 55.16 24.656 55.4 24.416 55.704C24.176 56.008 24.056 56.36 24.056 56.76C24.056 57.24 24.192 57.64 24.464 57.96C24.752 58.264 25.16 58.512 25.688 58.704C26.216 58.88 26.848 59.04 27.584 59.184C28.544 59.36 29.384 59.568 30.104 59.808C30.84 60.048 31.448 60.36 31.928 60.744C32.408 61.112 32.768 61.584 33.008 62.16C33.248 62.72 33.368 63.408 33.368 64.224C33.368 65.264 33.08 66.16 32.504 66.912C31.928 67.664 31.168 68.24 30.224 68.64C29.296 69.04 28.288 69.24 27.2 69.24ZM46.3923 55.92C46.8083 55.92 47.1523 56.056 47.4243 56.328C47.6963 56.6 47.8323 56.952 47.8323 57.384V67.536C47.8323 67.952 47.6963 68.304 47.4243 68.592C47.1523 68.864 46.8083 69 46.3923 69C45.9763 69 45.6323 68.864 45.3603 68.592C45.0883 68.304 44.9523 67.952 44.9523 67.536V66.36L45.4803 66.576C45.4803 66.784 45.3683 67.04 45.1443 67.344C44.9203 67.632 44.6163 67.92 44.2323 68.208C43.8483 68.496 43.3923 68.744 42.8643 68.952C42.3523 69.144 41.7923 69.24 41.1843 69.24C40.0803 69.24 39.0803 68.96 38.1843 68.4C37.2883 67.824 36.5763 67.04 36.0483 66.048C35.5363 65.04 35.2803 63.888 35.2803 62.592C35.2803 61.28 35.5363 60.128 36.0483 59.136C36.5763 58.128 37.2803 57.344 38.1603 56.784C39.0403 56.208 40.0163 55.92 41.0883 55.92C41.7763 55.92 42.4083 56.024 42.9843 56.232C43.5603 56.44 44.0563 56.704 44.4723 57.024C44.9043 57.344 45.2323 57.672 45.4563 58.008C45.6963 58.328 45.8163 58.6 45.8163 58.824L44.9523 59.136V57.384C44.9523 56.968 45.0883 56.624 45.3603 56.352C45.6323 56.064 45.9763 55.92 46.3923 55.92ZM41.5443 66.6C42.2483 66.6 42.8643 66.424 43.3923 66.072C43.9203 65.72 44.3283 65.24 44.6163 64.632C44.9203 64.024 45.0723 63.344 45.0723 62.592C45.0723 61.824 44.9203 61.136 44.6163 60.528C44.3283 59.92 43.9203 59.44 43.3923 59.088C42.8643 58.736 42.2483 58.56 41.5443 58.56C40.8563 58.56 40.2483 58.736 39.7203 59.088C39.1923 59.44 38.7763 59.92 38.4723 60.528C38.1843 61.136 38.0403 61.824 38.0403 62.592C38.0403 63.344 38.1843 64.024 38.4723 64.632C38.7763 65.24 39.1923 65.72 39.7203 66.072C40.2483 66.424 40.8563 66.6 41.5443 66.6ZM57.6946 55.92C58.9746 55.92 59.9186 56.232 60.5266 56.856C61.1346 57.464 61.5346 58.256 61.7266 59.232L61.3186 59.016L61.5106 58.632C61.7026 58.264 61.9986 57.872 62.3986 57.456C62.7986 57.024 63.2786 56.664 63.8386 56.376C64.4146 56.072 65.0546 55.92 65.7586 55.92C66.9106 55.92 67.7826 56.168 68.3746 56.664C68.9826 57.16 69.3986 57.824 69.6226 58.656C69.8466 59.472 69.9586 60.384 69.9586 61.392V67.536C69.9586 67.952 69.8226 68.304 69.5506 68.592C69.2786 68.864 68.9346 69 68.5186 69C68.1026 69 67.7586 68.864 67.4866 68.592C67.2146 68.304 67.0786 67.952 67.0786 67.536V61.392C67.0786 60.864 67.0146 60.392 66.8866 59.976C66.7586 59.544 66.5266 59.2 66.1906 58.944C65.8546 58.688 65.3746 58.56 64.7506 58.56C64.1426 58.56 63.6226 58.688 63.1906 58.944C62.7586 59.2 62.4306 59.544 62.2066 59.976C61.9986 60.392 61.8946 60.864 61.8946 61.392V67.536C61.8946 67.952 61.7586 68.304 61.4866 68.592C61.2146 68.864 60.8706 69 60.4546 69C60.0386 69 59.6946 68.864 59.4226 68.592C59.1506 68.304 59.0146 67.952 59.0146 67.536V61.392C59.0146 60.864 58.9506 60.392 58.8226 59.976C58.6946 59.544 58.4626 59.2 58.1266 58.944C57.7906 58.688 57.3106 58.56 56.6866 58.56C56.0786 58.56 55.5586 58.688 55.1266 58.944C54.6946 59.2 54.3666 59.544 54.1426 59.976C53.9346 60.392 53.8306 60.864 53.8306 61.392V67.536C53.8306 67.952 53.6946 68.304 53.4226 68.592C53.1506 68.864 52.8066 69 52.3906 69C51.9746 69 51.6306 68.864 51.3586 68.592C51.0866 68.304 50.9506 67.952 50.9506 67.536V57.624C50.9506 57.208 51.0866 56.864 51.3586 56.592C51.6306 56.304 51.9746 56.16 52.3906 56.16C52.8066 56.16 53.1506 56.304 53.4226 56.592C53.6946 56.864 53.8306 57.208 53.8306 57.624V58.656L53.4706 58.584C53.6146 58.312 53.8146 58.024 54.0706 57.72C54.3266 57.4 54.6386 57.104 55.0066 56.832C55.3746 56.56 55.7826 56.344 56.2306 56.184C56.6786 56.008 57.1666 55.92 57.6946 55.92ZM83.5876 55.92C84.0036 55.92 84.3476 56.056 84.6196 56.328C84.8916 56.6 85.0276 56.952 85.0276 57.384V67.536C85.0276 67.952 84.8916 68.304 84.6196 68.592C84.3476 68.864 84.0036 69 83.5876 69C83.1716 69 82.8276 68.864 82.5556 68.592C82.2836 68.304 82.1476 67.952 82.1476 67.536V66.36L82.6756 66.576C82.6756 66.784 82.5636 67.04 82.3396 67.344C82.1156 67.632 81.8116 67.92 81.4276 68.208C81.0436 68.496 80.5876 68.744 80.0596 68.952C79.5476 69.144 78.9876 69.24 78.3796 69.24C77.2756 69.24 76.2756 68.96 75.3796 68.4C74.4836 67.824 73.7716 67.04 73.2436 66.048C72.7316 65.04 72.4756 63.888 72.4756 62.592C72.4756 61.28 72.7316 60.128 73.2436 59.136C73.7716 58.128 74.4756 57.344 75.3556 56.784C76.2356 56.208 77.2116 55.92 78.2836 55.92C78.9716 55.92 79.6036 56.024 80.1796 56.232C80.7556 56.44 81.2516 56.704 81.6676 57.024C82.0996 57.344 82.4276 57.672 82.6516 58.008C82.8916 58.328 83.0116 58.6 83.0116 58.824L82.1476 59.136V57.384C82.1476 56.968 82.2836 56.624 82.5556 56.352C82.8276 56.064 83.1716 55.92 83.5876 55.92ZM78.7396 66.6C79.4436 66.6 80.0596 66.424 80.5876 66.072C81.1156 65.72 81.5236 65.24 81.8116 64.632C82.1156 64.024 82.2676 63.344 82.2676 62.592C82.2676 61.824 82.1156 61.136 81.8116 60.528C81.5236 59.92 81.1156 59.44 80.5876 59.088C80.0596 58.736 79.4436 58.56 78.7396 58.56C78.0516 58.56 77.4436 58.736 76.9156 59.088C76.3876 59.44 75.9716 59.92 75.6676 60.528C75.3796 61.136 75.2356 61.824 75.2356 62.592C75.2356 63.344 75.3796 64.024 75.6676 64.632C75.9716 65.24 76.3876 65.72 76.9156 66.072C77.4436 66.424 78.0516 66.6 78.7396 66.6ZM95.0099 55.92C96.1939 55.92 97.0899 56.168 97.6979 56.664C98.3219 57.16 98.7459 57.824 98.9699 58.656C99.2099 59.472 99.3299 60.384 99.3299 61.392V67.536C99.3299 67.952 99.1939 68.304 98.9219 68.592C98.6499 68.864 98.3059 69 97.8899 69C97.4739 69 97.1299 68.864 96.8579 68.592C96.5859 68.304 96.4499 67.952 96.4499 67.536V61.392C96.4499 60.864 96.3779 60.392 96.2339 59.976C96.1059 59.544 95.8659 59.2 95.5139 58.944C95.1619 58.688 94.6579 58.56 94.0019 58.56C93.3619 58.56 92.8179 58.688 92.3699 58.944C91.9379 59.2 91.6019 59.544 91.3619 59.976C91.1379 60.392 91.0259 60.864 91.0259 61.392V67.536C91.0259 67.952 90.8899 68.304 90.6179 68.592C90.3459 68.864 90.0019 69 89.5859 69C89.1699 69 88.8259 68.864 88.5539 68.592C88.2819 68.304 88.1459 67.952 88.1459 67.536V57.624C88.1459 57.208 88.2819 56.864 88.5539 56.592C88.8259 56.304 89.1699 56.16 89.5859 56.16C90.0019 56.16 90.3459 56.304 90.6179 56.592C90.8899 56.864 91.0259 57.208 91.0259 57.624V58.656L90.6659 58.584C90.8099 58.312 91.0179 58.024 91.2899 57.72C91.5619 57.4 91.8819 57.104 92.2499 56.832C92.6179 56.56 93.0339 56.344 93.4979 56.184C93.9619 56.008 94.4659 55.92 95.0099 55.92Z" fill="white"/>
</svg>
