<svg width="120" height="120" viewBox="0 0 120 120" fill="none" xmlns="http://www.w3.org/2000/svg">
<rect width="120" height="120" rx="8" fill="#F27D00"/>
<path d="M28.312 52.176C28.536 52.176 28.768 52.24 29.008 52.368C29.264 52.48 29.456 52.632 29.584 52.824L35.416 61.8L34.216 61.752L40.192 52.824C40.496 52.392 40.888 52.176 41.368 52.176C41.752 52.176 42.096 52.312 42.4 52.584C42.704 52.856 42.856 53.208 42.856 53.64V67.536C42.856 67.952 42.72 68.304 42.448 68.592C42.176 68.864 41.816 69 41.368 69C40.92 69 40.552 68.864 40.264 68.592C39.992 68.304 39.856 67.952 39.856 67.536V56.232L40.792 56.448L35.896 63.912C35.752 64.088 35.568 64.24 35.344 64.368C35.136 64.496 34.92 64.552 34.696 64.536C34.488 64.552 34.272 64.496 34.048 64.368C33.84 64.24 33.664 64.088 33.52 63.912L28.936 56.664L29.56 55.392V67.536C29.56 67.952 29.432 68.304 29.176 68.592C28.92 68.864 28.584 69 28.168 69C27.768 69 27.44 68.864 27.184 68.592C26.928 68.304 26.8 67.952 26.8 67.536V53.64C26.8 53.24 26.944 52.896 27.232 52.608C27.536 52.32 27.896 52.176 28.312 52.176ZM52.2721 69.24C50.9121 69.24 49.7281 68.96 48.7201 68.4C47.7281 67.824 46.9601 67.048 46.4161 66.072C45.8881 65.096 45.6241 63.992 45.6241 62.76C45.6241 61.32 45.9121 60.096 46.4881 59.088C47.0801 58.064 47.8481 57.28 48.7921 56.736C49.7361 56.192 50.7361 55.92 51.7921 55.92C52.6081 55.92 53.3761 56.088 54.0961 56.424C54.8321 56.76 55.4801 57.224 56.0401 57.816C56.6001 58.392 57.0401 59.064 57.3601 59.832C57.6961 60.6 57.8641 61.416 57.8641 62.28C57.8481 62.664 57.6961 62.976 57.4081 63.216C57.1201 63.456 56.7841 63.576 56.4001 63.576H47.2321L46.5121 61.176H55.3201L54.7921 61.656V61.008C54.7601 60.544 54.5921 60.128 54.2881 59.76C54.0001 59.392 53.6321 59.104 53.1841 58.896C52.7521 58.672 52.2881 58.56 51.7921 58.56C51.3121 58.56 50.8641 58.624 50.4481 58.752C50.0321 58.88 49.6721 59.096 49.3681 59.4C49.0641 59.704 48.8241 60.112 48.6481 60.624C48.4721 61.136 48.3841 61.784 48.3841 62.568C48.3841 63.432 48.5601 64.168 48.9121 64.776C49.2801 65.368 49.7441 65.824 50.3041 66.144C50.8801 66.448 51.4881 66.6 52.1281 66.6C52.7201 66.6 53.1921 66.552 53.5441 66.456C53.8961 66.36 54.1761 66.248 54.3841 66.12C54.6081 65.976 54.8081 65.856 54.9841 65.76C55.2721 65.616 55.5441 65.544 55.8001 65.544C56.1521 65.544 56.4401 65.664 56.6641 65.904C56.9041 66.144 57.0241 66.424 57.0241 66.744C57.0241 67.176 56.8001 67.568 56.3521 67.92C55.9361 68.272 55.3521 68.584 54.6001 68.856C53.8481 69.112 53.0721 69.24 52.2721 69.24ZM67.1243 55.92C68.4043 55.92 69.3483 56.232 69.9563 56.856C70.5643 57.464 70.9643 58.256 71.1563 59.232L70.7483 59.016L70.9403 58.632C71.1323 58.264 71.4283 57.872 71.8283 57.456C72.2283 57.024 72.7083 56.664 73.2683 56.376C73.8443 56.072 74.4843 55.92 75.1883 55.92C76.3403 55.92 77.2123 56.168 77.8043 56.664C78.4123 57.16 78.8283 57.824 79.0523 58.656C79.2763 59.472 79.3883 60.384 79.3883 61.392V67.536C79.3883 67.952 79.2523 68.304 78.9803 68.592C78.7083 68.864 78.3643 69 77.9483 69C77.5323 69 77.1883 68.864 76.9163 68.592C76.6443 68.304 76.5083 67.952 76.5083 67.536V61.392C76.5083 60.864 76.4443 60.392 76.3163 59.976C76.1883 59.544 75.9563 59.2 75.6203 58.944C75.2843 58.688 74.8043 58.56 74.1803 58.56C73.5723 58.56 73.0523 58.688 72.6203 58.944C72.1883 59.2 71.8603 59.544 71.6363 59.976C71.4283 60.392 71.3243 60.864 71.3243 61.392V67.536C71.3243 67.952 71.1883 68.304 70.9163 68.592C70.6443 68.864 70.3003 69 69.8843 69C69.4683 69 69.1243 68.864 68.8523 68.592C68.5803 68.304 68.4443 67.952 68.4443 67.536V61.392C68.4443 60.864 68.3803 60.392 68.2523 59.976C68.1243 59.544 67.8923 59.2 67.5563 58.944C67.2203 58.688 66.7403 58.56 66.1163 58.56C65.5083 58.56 64.9883 58.688 64.5563 58.944C64.1243 59.2 63.7963 59.544 63.5723 59.976C63.3643 60.392 63.2603 60.864 63.2603 61.392V67.536C63.2603 67.952 63.1243 68.304 62.8523 68.592C62.5803 68.864 62.2363 69 61.8203 69C61.4043 69 61.0603 68.864 60.7883 68.592C60.5163 68.304 60.3803 67.952 60.3803 67.536V57.624C60.3803 57.208 60.5163 56.864 60.7883 56.592C61.0603 56.304 61.4043 56.16 61.8203 56.16C62.2363 56.16 62.5803 56.304 62.8523 56.592C63.1243 56.864 63.2603 57.208 63.2603 57.624V58.656L62.9003 58.584C63.0443 58.312 63.2443 58.024 63.5003 57.72C63.7563 57.4 64.0683 57.104 64.4363 56.832C64.8043 56.56 65.2123 56.344 65.6603 56.184C66.1083 56.008 66.5963 55.92 67.1243 55.92ZM94.9613 62.592C94.9613 63.904 94.6653 65.064 94.0733 66.072C93.4973 67.064 92.7133 67.84 91.7213 68.4C90.7453 68.96 89.6493 69.24 88.4333 69.24C87.2173 69.24 86.1133 68.96 85.1213 68.4C84.1453 67.84 83.3613 67.064 82.7693 66.072C82.1933 65.064 81.9053 63.904 81.9053 62.592C81.9053 61.28 82.1933 60.128 82.7693 59.136C83.3613 58.128 84.1453 57.344 85.1213 56.784C86.1133 56.208 87.2173 55.92 88.4333 55.92C89.6493 55.92 90.7453 56.208 91.7213 56.784C92.7133 57.344 93.4973 58.128 94.0733 59.136C94.6653 60.128 94.9613 61.28 94.9613 62.592ZM92.0813 62.592C92.0813 61.776 91.9133 61.072 91.5773 60.48C91.2573 59.872 90.8173 59.4 90.2573 59.064C89.7133 58.728 89.1053 58.56 88.4333 58.56C87.7613 58.56 87.1453 58.728 86.5853 59.064C86.0413 59.4 85.6013 59.872 85.2653 60.48C84.9453 61.072 84.7853 61.776 84.7853 62.592C84.7853 63.392 84.9453 64.096 85.2653 64.704C85.6013 65.296 86.0413 65.76 86.5853 66.096C87.1453 66.432 87.7613 66.6 88.4333 66.6C89.1053 66.6 89.7133 66.432 90.2573 66.096C90.8173 65.76 91.2573 65.296 91.5773 64.704C91.9133 64.096 92.0813 63.392 92.0813 62.592Z" fill="white"/>
</svg>
